<svg width="105" height="38" viewBox="0 0 105 38" fill="none" xmlns="http://www.w3.org/2000/svg">
<path d="M1.0684e-05 17.8193V0.240324H7.03846C8.3317 0.240324 9.41036 0.432022 10.2744 0.815417C11.1385 1.19881 11.788 1.73099 12.2229 2.41194C12.6578 3.08718 12.8752 3.86541 12.8752 4.74665C12.8752 5.43332 12.7379 6.03703 12.4632 6.55776C12.1885 7.07277 11.8109 7.49622 11.3302 7.82811C10.8552 8.15429 10.3116 8.38604 9.69933 8.52337V8.69504C10.3688 8.72366 10.9954 8.91249 11.5791 9.26155C12.1685 9.61061 12.6463 10.0999 13.0126 10.7293C13.3788 11.3531 13.5619 12.097 13.5619 12.961C13.5619 13.8938 13.3301 14.7264 12.8666 15.4588C12.4089 16.1856 11.7308 16.7606 10.8324 17.1841C9.93395 17.6075 8.82668 17.8193 7.51055 17.8193H1.0684e-05ZM3.71665 14.7807H6.74662C7.78236 14.7807 8.5377 14.5833 9.01266 14.1885C9.48761 13.7879 9.72508 13.2557 9.72508 12.5919C9.72508 12.1055 9.60778 11.6764 9.37316 11.3044C9.13855 10.9325 8.80379 10.6406 8.3689 10.4289C7.93972 10.2172 7.42758 10.1113 6.83245 10.1113H3.71665V14.7807ZM3.71665 7.59636H6.47195C6.98123 7.59636 7.4333 7.50766 7.82814 7.33027C8.2287 7.14716 8.54343 6.88965 8.77232 6.55776C9.00693 6.22587 9.12424 5.82816 9.12424 5.36466C9.12424 4.72948 8.89821 4.21733 8.44615 3.82822C7.99981 3.4391 7.36463 3.24454 6.54062 3.24454H3.71665V7.59636ZM19.0103 17.8193H15.0275L21.096 0.240324H25.8856L31.9455 17.8193H27.9628L23.5595 4.25739H23.4222L19.0103 17.8193ZM18.7613 10.9096H28.1688V13.8108H18.7613V10.9096ZM48.7649 0.240324V17.8193H45.5546L37.9068 6.75518H37.778V17.8193H34.0614V0.240324H37.3231L44.9109 11.2958H45.0654V0.240324H48.7649ZM63.492 5.92258C63.3718 5.50485 63.203 5.13576 62.9855 4.81531C62.7681 4.48914 62.502 4.21447 62.1873 3.9913C61.8783 3.76241 61.5235 3.58788 61.1229 3.46771C60.7281 3.34754 60.2903 3.28746 59.8096 3.28746C58.9112 3.28746 58.1216 3.51063 57.4406 3.95697C56.7654 4.40331 56.2389 5.05279 55.8612 5.90542C55.4836 6.75232 55.2947 7.78806 55.2947 9.01263C55.2947 10.2372 55.4807 11.2787 55.8527 12.137C56.2246 12.9954 56.7511 13.6506 57.432 14.1026C58.113 14.549 58.917 14.7721 59.844 14.7721C60.6852 14.7721 61.4033 14.6234 61.9984 14.3258C62.5993 14.0225 63.0571 13.5962 63.3718 13.0469C63.6922 12.4975 63.8525 11.848 63.8525 11.0984L64.6078 11.21H60.0757V8.41179H67.4318V10.6263C67.4318 12.1714 67.1056 13.4989 66.4532 14.6091C65.8009 15.7135 64.9025 16.5661 63.758 17.1669C62.6136 17.7621 61.3032 18.0596 59.8268 18.0596C58.1788 18.0596 56.731 17.6962 55.4836 16.9695C54.2361 16.2371 53.2633 15.1985 52.5652 13.8537C51.8728 12.5032 51.5266 10.901 51.5266 9.04697C51.5266 7.62211 51.7326 6.35176 52.1446 5.2359C52.5623 4.11433 53.146 3.16443 53.8956 2.38619C54.6453 1.60796 55.5179 1.0157 56.5136 0.609413C57.5093 0.203129 58.5879 -1.33263e-05 59.7496 -1.33263e-05C60.7452 -1.33263e-05 61.6723 0.145906 62.5306 0.437744C63.389 0.72386 64.15 1.13014 64.8138 1.6566C65.4833 2.18305 66.0298 2.80964 66.4532 3.53638C66.8767 4.25739 67.1485 5.05279 67.2687 5.92258H63.492ZM81.8799 5.92258C81.7597 5.50485 81.5909 5.13576 81.3735 4.81531C81.156 4.48914 80.8899 4.21447 80.5752 3.9913C80.2662 3.76241 79.9114 3.58788 79.5109 3.46771C79.116 3.34754 78.6783 3.28746 78.1976 3.28746C77.2992 3.28746 76.5095 3.51063 75.8286 3.95697C75.1533 4.40331 74.6269 5.05279 74.2492 5.90542C73.8715 6.75232 73.6827 7.78806 73.6827 9.01263C73.6827 10.2372 73.8687 11.2787 74.2406 12.137C74.6126 12.9954 75.139 13.6506 75.82 14.1026C76.5009 14.549 77.3049 14.7721 78.2319 14.7721C79.0731 14.7721 79.7913 14.6234 80.3864 14.3258C80.9872 14.0225 81.445 13.5962 81.7597 13.0469C82.0802 12.4975 82.2404 11.848 82.2404 11.0984L82.9958 11.21H78.4637V8.41179H85.8197V10.6263C85.8197 12.1714 85.4935 13.4989 84.8412 14.6091C84.1889 15.7135 83.2904 16.5661 82.146 17.1669C81.0015 17.7621 79.6911 18.0596 78.2148 18.0596C76.5667 18.0596 75.119 17.6962 73.8715 16.9695C72.6241 16.2371 71.6513 15.1985 70.9531 13.8537C70.2607 12.5032 69.9145 10.901 69.9145 9.04697C69.9145 7.62211 70.1205 6.35176 70.5325 5.2359C70.9503 4.11433 71.534 3.16443 72.2836 2.38619C73.0332 1.60796 73.9059 1.0157 74.9015 0.609413C75.8972 0.203129 76.9759 -1.33263e-05 78.1375 -1.33263e-05C79.1332 -1.33263e-05 80.0602 0.145906 80.9186 0.437744C81.7769 0.72386 82.538 1.13014 83.2018 1.6566C83.8713 2.18305 84.4177 2.80964 84.8412 3.53638C85.2646 4.25739 85.5365 5.05279 85.6566 5.92258H81.8799ZM91.0985 17.8193H87.1158L93.1843 0.240324H97.9739L104.034 17.8193H100.051L95.6478 4.25739H95.5104L91.0985 17.8193ZM90.8496 10.9096H100.257V13.8108H90.8496V10.9096ZM12.4103 26.1H15.466L18.6934 33.9739H18.8307L22.0581 26.1H25.1138V37.8193H22.7104V30.1914H22.6132L19.5803 37.7621H17.9438L14.9109 30.1628H14.8136V37.8193H12.4103V26.1ZM29.1752 37.8193H26.5201L30.5658 26.1H33.7588L37.7988 37.8193H35.1436L32.2081 28.778H32.1165L29.1752 37.8193ZM29.0093 33.2128H35.2809V35.147H29.0093V33.2128ZM39.2093 37.8193V26.1H41.6871V35.7764H46.7113V37.8193H39.2093ZM50.6711 37.8193H48.016L52.0616 26.1H55.2547L59.2946 37.8193H56.6395L53.7039 28.778H53.6124L50.6711 37.8193ZM50.5052 33.2128H56.7768V35.147H50.5052V33.2128ZM58.8225 26.1H61.5979L64.2702 31.1471H64.3846L67.057 26.1H69.8323L65.5577 33.6763V37.8193H63.0971V33.6763L58.8225 26.1ZM77.5431 29.4704C77.4973 29.0088 77.3008 28.6502 76.9537 28.3946C76.6065 28.139 76.1354 28.0112 75.5403 28.0112C75.1359 28.0112 74.7945 28.0685 74.516 28.1829C74.2375 28.2935 74.0239 28.448 73.8751 28.6464C73.7301 28.8448 73.6576 29.0699 73.6576 29.3216C73.65 29.5315 73.6939 29.7146 73.7893 29.871C73.8884 30.0274 74.0239 30.1628 74.1955 30.2773C74.3672 30.3879 74.5656 30.4852 74.7907 30.5691C75.0157 30.6492 75.2561 30.7179 75.5117 30.7751L76.5646 31.0269C77.0758 31.1413 77.545 31.2939 77.9723 31.4847C78.3995 31.6754 78.7696 31.91 79.0824 32.1885C79.3952 32.467 79.6375 32.7951 79.8091 33.1728C79.9846 33.5504 80.0743 33.9834 80.0781 34.4717C80.0743 35.1889 79.8912 35.8107 79.5287 36.3372C79.1701 36.8598 78.6513 37.2661 77.9723 37.556C77.297 37.8422 76.4826 37.9852 75.5288 37.9852C74.5828 37.9852 73.7587 37.8403 73.0568 37.5503C72.3587 37.2604 71.8131 36.8312 71.4202 36.2628C71.0311 35.6906 70.827 34.9829 70.8079 34.1398H73.2056C73.2323 34.5328 73.3448 34.8608 73.5432 35.1241C73.7454 35.3835 74.0143 35.5799 74.35 35.7135C74.6896 35.8432 75.073 35.908 75.5002 35.908C75.9199 35.908 76.2842 35.847 76.5932 35.7249C76.906 35.6028 77.1483 35.4331 77.3199 35.2156C77.4916 34.9982 77.5774 34.7483 77.5774 34.466C77.5774 34.2028 77.4992 33.9815 77.3428 33.8022C77.1902 33.6229 76.9651 33.4703 76.6676 33.3444C76.3738 33.2185 76.0133 33.1041 75.5861 33.0011L74.31 32.6806C73.3219 32.4403 72.5418 32.0645 71.9696 31.5533C71.3973 31.0421 71.1131 30.3536 71.1169 29.4876C71.1131 28.778 71.302 28.1581 71.6834 27.6278C72.0687 27.0976 72.5971 26.6837 73.2685 26.3861C73.9399 26.0885 74.7029 25.9397 75.5575 25.9397C76.4272 25.9397 77.1864 26.0885 77.8349 26.3861C78.4873 26.6837 78.9947 27.0976 79.3571 27.6278C79.7195 28.1581 79.9064 28.7723 79.9179 29.4704H77.5431ZM84.2225 26.1V37.8193H81.7447V26.1H84.2225ZM88.281 37.8193H85.6259L89.6715 26.1H92.8646L96.9045 37.8193H94.2494L91.3138 28.778H91.2223L88.281 37.8193ZM88.1151 33.2128H94.3867V35.147H88.1151V33.2128Z" fill="#FAEAC2"/>
</svg>
